<svg xmlns="http://www.w3.org/2000/svg" viewBox="0 0 66 82.5" width="35" height="35" fill="#f97316">
  <g>
    <path d="M3.8155,32.455c3.97,1.87,9.49,3.54,9.49,3.54h-7.9c2.76,4.6801,8.09,8.42,17.69,9.59l-4.36,3.01   c3.18,3.72,11.21,8.74,14.2599,8.78c3.05-0.04,11.09-5.06,14.27-8.78l-4.36-3.01c9.6-1.17,14.93-4.91,17.69-9.59h-7.91   c0,0,5.52-1.67,9.5-3.53v-0.01c0.97-3,1.19-6.18,1.01-9.22c-6.22,4.43-8.66,5.3799-8.66,5.3799c3.34-2.3,6.23-7.24,7.97-10.74   c-0.92-4.8-2.38-8.49-2.42-9.25c-5.47,12.51-14.79,20.65-21.15,21.12c1.39,1.47,2.25,3.44,2.25,5.62   c0,4.5949-3.7435,8.19-8.19,8.19c-4.4786,0-8.18-3.6364-8.18-8.19c0-2.18,0.86-4.15,2.25-5.62c-6.36-0.47-15.68-8.61-21.15-21.12   c-0.04,0.76-1.5,4.45-2.42,9.25c1.7401,3.5,4.63,8.44,7.97,10.74c0,0-2.43-0.95-8.66-5.37   C2.6255,26.285,2.8355,29.465,3.8155,32.455z"/>
  </g>
</svg>